# xmcd
#
# Track frame offsets:
#	150
#	28153
#	48527
#	69801
#	92062
#	117882
#	135748
#	158387
#	180863
#	203215
#	228663
#	247066
#	265769
#	286650
#	305046
#	322929
#	339334
#
# Disc length: 4798 seconds
#
# Revision: 4
# Processed by: cddbd v1.5.2PL0 Copyright (c) Steve Scherf et al.
# Submitted via: EasyCDDAExtractor 15.3.0.1
#
DISCID=e412bc11
DTITLE=Cam Ly - Noi Buon Chim Sao
DYEAR=1900
DGENRE=Blues
TTITLE0=Cam Ly - Noi Buon Chim Sao
TTITLE1=Cam Ly - Chut Tinh Mong Manh
TTITLE2=Cam Ly - Mua Pho
TTITLE3=Cam Ly and Lam Truong - Xin Mot Lan Thoi
TTITLE4=Cam Ly - Chong Xa
TTITLE5=Cam Ly - Vu Vo
TTITLE6=Cam Ly - Noi Dau Ngay Qua
TTITLE7=Cam Ly - Bien Tinh Yeu
TTITLE8=Cam Ly and Minh Thuan - Tru Mua
TTITLE9=Cam Ly - Tinh Dang Ly Kho Qua
TTITLE10=Cam Ly - Chi Vi Yeu Anh
TTITLE11=Cam Ly - Ngan Ngo Ao Trang
TTITLE12=Cam Ly and Dan Truong - Nu Hong Ho Hung
TTITLE13=Cam Ly - Sac Mau Con Gai
TTITLE14=Cam Ly and Lam Truong - Khi Tinh Yeu Den
TTITLE15=Cam Ly and Dan Truong - Tro Lai Pho Cu(Dance Remix)
TTITLE16=Cam Ly and Dan Truong - Ao Mong Tinh Yeu(Dance Remix)
EXTD=ID3G:   0
EXTT0=
EXTT1=
EXTT2=
EXTT3=
EXTT4=
EXTT5=
EXTT6=
EXTT7=
EXTT8=
EXTT9=
EXTT10=
EXTT11=
EXTT12=
EXTT13=
EXTT14=
EXTT15=
EXTT16=
PLAYORDER=
